<svg width="36" height="36" viewBox="0 0 36 36" fill="none" xmlns="http://www.w3.org/2000/svg">
<rect width="36" height="36" fill="#E5E5E5"/>
<g clip-path="url(#clip0_0_1)">
<rect width="1440" height="4774" transform="translate(-843 -2778)" fill="white"/>
<g opacity="0.4">
<g opacity="0.8" filter="url(#filter0_f_0_1)">
<ellipse cx="209" cy="-158.5" rx="177" ry="183.5" fill="#59B1E6"/>
</g>
</g>
<g filter="url(#filter1_dddddd_0_1)">
<rect x="-28" y="-283" width="370" height="400" rx="26" fill="white"/>
</g>
<circle cx="18" cy="18" r="18" fill="#F5F5F5"/>
<g clip-path="url(#clip1_0_1)">
<path d="M24.6544 12.1508C24.2855 12.0429 15.2624 11.1445 12.0936 15.4257C10.6902 17.3222 10.6691 19.9221 12.0233 23.1525C11.6798 23.8655 11.379 24.6166 11.134 25.4091C11.0594 25.6499 11.1942 25.9052 11.4348 25.9795C11.4796 25.9934 11.525 26 11.5699 26C11.7643 26 11.9449 25.8744 12.0052 25.6787C14.4204 17.8703 22.2693 14.0927 24.6762 13.1383C24.9105 13.0454 25.2235 12.3174 24.6544 12.1508Z" fill="#84829A"/>
<path d="M13.4719 24.1296C14.7783 24.6777 16.0845 24.9586 17.2992 24.9586C18.391 24.9586 19.4092 24.7341 20.2866 24.2789C22.0525 23.3629 23.1315 21.6107 23.4071 19.2112C23.6878 16.7658 24.0373 15.234 24.3289 14.297C21.7336 15.4942 16.1688 18.5973 13.4719 24.1296Z" fill="#84829A"/>
</g>
</g>
<defs>
<filter id="filter0_f_0_1" x="-118" y="-492" width="654" height="667" filterUnits="userSpaceOnUse" color-interpolation-filters="sRGB">
<feFlood flood-opacity="0" result="BackgroundImageFix"/>
<feBlend mode="normal" in="SourceGraphic" in2="BackgroundImageFix" result="shape"/>
<feGaussianBlur stdDeviation="75" result="effect1_foregroundBlur_0_1"/>
</filter>
<filter id="filter1_dddddd_0_1" x="-108" y="-284.296" width="530" height="581.296" filterUnits="userSpaceOnUse" color-interpolation-filters="sRGB">
<feFlood flood-opacity="0" result="BackgroundImageFix"/>
<feColorMatrix in="SourceAlpha" type="matrix" values="0 0 0 0 0 0 0 0 0 0 0 0 0 0 0 0 0 0 127 0" result="hardAlpha"/>
<feOffset dy="1.85185"/>
<feGaussianBlur stdDeviation="1.57407"/>
<feColorMatrix type="matrix" values="0 0 0 0 0 0 0 0 0 0 0 0 0 0 0 0 0 0 0.01 0"/>
<feBlend mode="normal" in2="BackgroundImageFix" result="effect1_dropShadow_0_1"/>
<feColorMatrix in="SourceAlpha" type="matrix" values="0 0 0 0 0 0 0 0 0 0 0 0 0 0 0 0 0 0 127 0" result="hardAlpha"/>
<feOffset dy="8.14815"/>
<feGaussianBlur stdDeviation="3.25926"/>
<feColorMatrix type="matrix" values="0 0 0 0 0 0 0 0 0 0 0 0 0 0 0 0 0 0 0.01 0"/>
<feBlend mode="normal" in2="effect1_dropShadow_0_1" result="effect2_dropShadow_0_1"/>
<feColorMatrix in="SourceAlpha" type="matrix" values="0 0 0 0 0 0 0 0 0 0 0 0 0 0 0 0 0 0 127 0" result="hardAlpha"/>
<feOffset dy="20"/>
<feGaussianBlur stdDeviation="6.5"/>
<feColorMatrix type="matrix" values="0 0 0 0 0 0 0 0 0 0 0 0 0 0 0 0 0 0 0.01 0"/>
<feBlend mode="normal" in2="effect2_dropShadow_0_1" result="effect3_dropShadow_0_1"/>
<feColorMatrix in="SourceAlpha" type="matrix" values="0 0 0 0 0 0 0 0 0 0 0 0 0 0 0 0 0 0 127 0" result="hardAlpha"/>
<feOffset dy="38.5185"/>
<feGaussianBlur stdDeviation="12.7407"/>
<feColorMatrix type="matrix" values="0 0 0 0 0 0 0 0 0 0 0 0 0 0 0 0 0 0 0.0121481 0"/>
<feBlend mode="normal" in2="effect3_dropShadow_0_1" result="effect4_dropShadow_0_1"/>
<feColorMatrix in="SourceAlpha" type="matrix" values="0 0 0 0 0 0 0 0 0 0 0 0 0 0 0 0 0 0 127 0" result="hardAlpha"/>
<feOffset dy="64.8148"/>
<feGaussianBlur stdDeviation="23.4259"/>
<feColorMatrix type="matrix" values="0 0 0 0 0 0 0 0 0 0 0 0 0 0 0 0 0 0 0.0151852 0"/>
<feBlend mode="normal" in2="effect4_dropShadow_0_1" result="effect5_dropShadow_0_1"/>
<feColorMatrix in="SourceAlpha" type="matrix" values="0 0 0 0 0 0 0 0 0 0 0 0 0 0 0 0 0 0 127 0" result="hardAlpha"/>
<feOffset dy="100"/>
<feGaussianBlur stdDeviation="40"/>
<feColorMatrix type="matrix" values="0 0 0 0 0 0 0 0 0 0 0 0 0 0 0 0 0 0 0.02 0"/>
<feBlend mode="normal" in2="effect5_dropShadow_0_1" result="effect6_dropShadow_0_1"/>
<feBlend mode="normal" in="SourceGraphic" in2="effect6_dropShadow_0_1" result="shape"/>
</filter>
<clipPath id="clip0_0_1">
<rect width="1440" height="4774" fill="white" transform="translate(-843 -2778)"/>
</clipPath>
<clipPath id="clip1_0_1">
<rect width="14" height="14" fill="white" transform="translate(11 12)"/>
</clipPath>
</defs>
</svg>
