<svg width="16" height="75" viewBox="0 0 16 75" fill="none" xmlns="http://www.w3.org/2000/svg">
<rect width="16" height="75" fill="#E5E5E5"/>
<g clip-path="url(#clip0_0_1)">
<rect width="1440" height="4774" transform="translate(-1336 -3248)" fill="white"/>
<g filter="url(#filter0_d_0_1)">
<rect x="-568" y="-16" width="504" height="234" rx="11" stroke="#F7F7F7" stroke-width="2"/>
</g>
<path d="M0.292893 7.79289C-0.0976311 8.18342 -0.0976311 8.81658 0.292893 9.20711C0.683417 9.59763 1.31658 9.59763 1.70711 9.20711L0.292893 7.79289ZM8 1.5L8.70711 0.792893L8 0.0857865L7.29289 0.792893L8 1.5ZM14.2929 9.20711C14.6834 9.59763 15.3166 9.59763 15.7071 9.20711C16.0976 8.81658 16.0976 8.18342 15.7071 7.79289L14.2929 9.20711ZM1.70711 9.20711L8.70711 2.20711L7.29289 0.792893L0.292893 7.79289L1.70711 9.20711ZM7.29289 2.20711L14.2929 9.20711L15.7071 7.79289L8.70711 0.792893L7.29289 2.20711Z" fill="#BCB7C2"/>
<path d="M0.292893 66.7071C-0.0976311 66.3166 -0.0976311 65.6834 0.292893 65.2929C0.683417 64.9024 1.31658 64.9024 1.70711 65.2929L0.292893 66.7071ZM8 73L8.70711 73.7071L8 74.4142L7.29289 73.7071L8 73ZM14.2929 65.2929C14.6834 64.9024 15.3166 64.9024 15.7071 65.2929C16.0976 65.6834 16.0976 66.3166 15.7071 66.7071L14.2929 65.2929ZM1.70711 65.2929L8.70711 72.2929L7.29289 73.7071L0.292893 66.7071L1.70711 65.2929ZM7.29289 72.2929L14.2929 65.2929L15.7071 66.7071L8.70711 73.7071L7.29289 72.2929Z" fill="#3E2E4D"/>
</g>
<defs>
<filter id="filter0_d_0_1" x="-649" y="-17" width="666" height="416" filterUnits="userSpaceOnUse" color-interpolation-filters="sRGB">
<feFlood flood-opacity="0" result="BackgroundImageFix"/>
<feColorMatrix in="SourceAlpha" type="matrix" values="0 0 0 0 0 0 0 0 0 0 0 0 0 0 0 0 0 0 127 0" result="hardAlpha"/>
<feOffset dy="100"/>
<feGaussianBlur stdDeviation="40"/>
<feColorMatrix type="matrix" values="0 0 0 0 0 0 0 0 0 0 0 0 0 0 0 0 0 0 0.02 0"/>
<feBlend mode="normal" in2="BackgroundImageFix" result="effect1_dropShadow_0_1"/>
<feBlend mode="normal" in="SourceGraphic" in2="effect1_dropShadow_0_1" result="shape"/>
</filter>
<clipPath id="clip0_0_1">
<rect width="1440" height="4774" fill="white" transform="translate(-1336 -3248)"/>
</clipPath>
</defs>
</svg>
