<svg width="36" height="36" viewBox="0 0 36 36" fill="none" xmlns="http://www.w3.org/2000/svg">
<rect width="36" height="36" fill="#E5E5E5"/>
<g clip-path="url(#clip0_0_1)">
<rect width="1440" height="4774" transform="translate(-946 -2778)" fill="white"/>
<g opacity="0.4">
<g opacity="0.8" filter="url(#filter0_f_0_1)">
<ellipse cx="106" cy="-158.5" rx="177" ry="183.5" fill="#59B1E6"/>
</g>
</g>
<g filter="url(#filter1_dddddd_0_1)">
<rect x="-131" y="-283" width="370" height="400" rx="26" fill="white"/>
</g>
<circle cx="18" cy="18" r="18" fill="#F5F5F5"/>
<path d="M23.3433 13.2425L17.0258 19.5833C16.9533 19.5414 16.8772 19.5062 16.7983 19.4783L12.6274 18.0667C12.5013 18.0351 12.3893 17.9622 12.3094 17.8597C12.2294 17.7572 12.1859 17.6309 12.1859 17.5008C12.1859 17.3708 12.2294 17.2445 12.3094 17.142C12.3893 17.0395 12.5013 16.9666 12.6274 16.935L22.9758 13.2542C23.0434 13.2312 23.1143 13.2194 23.1858 13.2192C23.2392 13.2183 23.2924 13.2262 23.3433 13.2425Z" fill="#84829A"/>
<path d="M23.7459 14.0241L20.065 24.3841C20.0244 24.5049 19.9455 24.609 19.8401 24.6806C19.7348 24.7522 19.6089 24.7874 19.4817 24.7808C19.353 24.7867 19.226 24.7498 19.1205 24.6759C19.015 24.6021 18.9369 24.4954 18.8984 24.3725L17.51 20.2016C17.4821 20.1227 17.447 20.0465 17.405 19.9741L23.7575 13.6566C23.7934 13.7772 23.7893 13.9061 23.7459 14.0241Z" fill="#84829A"/>
</g>
<defs>
<filter id="filter0_f_0_1" x="-221" y="-492" width="654" height="667" filterUnits="userSpaceOnUse" color-interpolation-filters="sRGB">
<feFlood flood-opacity="0" result="BackgroundImageFix"/>
<feBlend mode="normal" in="SourceGraphic" in2="BackgroundImageFix" result="shape"/>
<feGaussianBlur stdDeviation="75" result="effect1_foregroundBlur_0_1"/>
</filter>
<filter id="filter1_dddddd_0_1" x="-211" y="-284.296" width="530" height="581.296" filterUnits="userSpaceOnUse" color-interpolation-filters="sRGB">
<feFlood flood-opacity="0" result="BackgroundImageFix"/>
<feColorMatrix in="SourceAlpha" type="matrix" values="0 0 0 0 0 0 0 0 0 0 0 0 0 0 0 0 0 0 127 0" result="hardAlpha"/>
<feOffset dy="1.85185"/>
<feGaussianBlur stdDeviation="1.57407"/>
<feColorMatrix type="matrix" values="0 0 0 0 0 0 0 0 0 0 0 0 0 0 0 0 0 0 0.01 0"/>
<feBlend mode="normal" in2="BackgroundImageFix" result="effect1_dropShadow_0_1"/>
<feColorMatrix in="SourceAlpha" type="matrix" values="0 0 0 0 0 0 0 0 0 0 0 0 0 0 0 0 0 0 127 0" result="hardAlpha"/>
<feOffset dy="8.14815"/>
<feGaussianBlur stdDeviation="3.25926"/>
<feColorMatrix type="matrix" values="0 0 0 0 0 0 0 0 0 0 0 0 0 0 0 0 0 0 0.01 0"/>
<feBlend mode="normal" in2="effect1_dropShadow_0_1" result="effect2_dropShadow_0_1"/>
<feColorMatrix in="SourceAlpha" type="matrix" values="0 0 0 0 0 0 0 0 0 0 0 0 0 0 0 0 0 0 127 0" result="hardAlpha"/>
<feOffset dy="20"/>
<feGaussianBlur stdDeviation="6.5"/>
<feColorMatrix type="matrix" values="0 0 0 0 0 0 0 0 0 0 0 0 0 0 0 0 0 0 0.01 0"/>
<feBlend mode="normal" in2="effect2_dropShadow_0_1" result="effect3_dropShadow_0_1"/>
<feColorMatrix in="SourceAlpha" type="matrix" values="0 0 0 0 0 0 0 0 0 0 0 0 0 0 0 0 0 0 127 0" result="hardAlpha"/>
<feOffset dy="38.5185"/>
<feGaussianBlur stdDeviation="12.7407"/>
<feColorMatrix type="matrix" values="0 0 0 0 0 0 0 0 0 0 0 0 0 0 0 0 0 0 0.0121481 0"/>
<feBlend mode="normal" in2="effect3_dropShadow_0_1" result="effect4_dropShadow_0_1"/>
<feColorMatrix in="SourceAlpha" type="matrix" values="0 0 0 0 0 0 0 0 0 0 0 0 0 0 0 0 0 0 127 0" result="hardAlpha"/>
<feOffset dy="64.8148"/>
<feGaussianBlur stdDeviation="23.4259"/>
<feColorMatrix type="matrix" values="0 0 0 0 0 0 0 0 0 0 0 0 0 0 0 0 0 0 0.0151852 0"/>
<feBlend mode="normal" in2="effect4_dropShadow_0_1" result="effect5_dropShadow_0_1"/>
<feColorMatrix in="SourceAlpha" type="matrix" values="0 0 0 0 0 0 0 0 0 0 0 0 0 0 0 0 0 0 127 0" result="hardAlpha"/>
<feOffset dy="100"/>
<feGaussianBlur stdDeviation="40"/>
<feColorMatrix type="matrix" values="0 0 0 0 0 0 0 0 0 0 0 0 0 0 0 0 0 0 0.02 0"/>
<feBlend mode="normal" in2="effect5_dropShadow_0_1" result="effect6_dropShadow_0_1"/>
<feBlend mode="normal" in="SourceGraphic" in2="effect6_dropShadow_0_1" result="shape"/>
</filter>
<clipPath id="clip0_0_1">
<rect width="1440" height="4774" fill="white" transform="translate(-946 -2778)"/>
</clipPath>
</defs>
</svg>
