<svg width="1440" height="4774" viewBox="0 0 1440 4774" fill="none" xmlns="http://www.w3.org/2000/svg">
<rect width="1440" height="4774" fill="#E5E5E5"/>
<g clip-path="url(#clip0_0_1)">
<rect width="1440" height="4774" fill="white"/>
<g opacity="0.4">
<g opacity="0.8" filter="url(#filter0_f_0_1)">
<ellipse rx="239.472" ry="248.432" transform="matrix(-1 0 0 1 1564.47 4805.43)" fill="#D5AEE4"/>
</g>
</g>
<g opacity="0.3" filter="url(#filter1_f_0_1)">
<ellipse cx="-180.528" cy="188.597" rx="239.472" ry="248.432" fill="#D5AEE4"/>
</g>
<path d="M758.307 222C717.907 153.2 741.474 13.3333 758.307 -48L1437.81 -149L1502.31 122.5L1463.81 723.5C1385.14 724.5 1209.71 717 1137.31 679C1046.81 631.5 1087.81 555 1012.81 515C937.807 475 980.807 369.5 954.807 329.5C928.807 289.5 808.807 308 758.307 222Z" fill="#FFF1DA"/>
</g>
<defs>
<filter id="filter0_f_0_1" x="1175" y="4407" width="778.945" height="796.864" filterUnits="userSpaceOnUse" color-interpolation-filters="sRGB">
<feFlood flood-opacity="0" result="BackgroundImageFix"/>
<feBlend mode="normal" in="SourceGraphic" in2="BackgroundImageFix" result="shape"/>
<feGaussianBlur stdDeviation="75" result="effect1_foregroundBlur_0_1"/>
</filter>
<filter id="filter1_f_0_1" x="-570" y="-209.836" width="778.945" height="796.864" filterUnits="userSpaceOnUse" color-interpolation-filters="sRGB">
<feFlood flood-opacity="0" result="BackgroundImageFix"/>
<feBlend mode="normal" in="SourceGraphic" in2="BackgroundImageFix" result="shape"/>
<feGaussianBlur stdDeviation="75" result="effect1_foregroundBlur_0_1"/>
</filter>
<clipPath id="clip0_0_1">
<rect width="1440" height="4774" fill="white"/>
</clipPath>
</defs>
</svg>
